:FULLY-SPECIFIED
:FORCE-ALL-JOINTS-BE-3DOF
:DEGREES
1053
root 1.2068 15.1596 32.5514 4.90207 -3.43384 3.45591
lfemur 8.7045 0.502973 5.63039
ltibia 0.191307 -0 0
lfoot -30.473 -11.1785 -0.000432414
ltoes -34.2041 0 0
rfemur -31.0828 -15.6727 -6.30923
rtibia 50.01 -0 0
rfoot -21.8684 5.45501 -3.45315e-06
rtoes -40.9612 0 0
lowerback -1.82155 -0.0564296 -0.250575
upperback -0.489748 -0.0381244 -6.03834
thorax 0.514833 -0.0209563 -6.11837
lowerneck -6.99043 0.763676 6.55312
upperneck 1.27327 0.33527 3.65228
head 1.58745 0.293078 0.0507702
lclavicle 1.28216e-14 1.74931e-14 0
lhumerus -58.6962 -46.8277 115.405
lradius 55.7935 -0 0
lwrist 25.5435 0 0
lhand 37.4214 25.3113 -8.20474e-06
lfingers 7.12502 -0 0
lthumb 60.2254 38.8527 -1.5235e-05
rclavicle 1.28216e-14 1.74931e-14 0
rhumerus 2.19212 -23.518 0.586092
rradius 27.4947 -0 0
rwrist -9.72252 0 0
rhand -30.5438 -42.0618 -3.8874e-05
rfingers 7.12502 -0 0
rthumb -3.84265 -72.0072 -3.81613e-05
1054
root 1.20869 15.16 32.5556 4.90541 -3.43828 3.44487
lfemur 8.67301 0.511138 5.617
ltibia 0.28696 -0 0
lfoot -30.5279 -11.1548 -0.000614485
ltoes -34.2096 0 0
rfemur -31.0588 -15.6538 -6.31007
rtibia 49.9907 -0 0
rfoot -21.8665 5.44975 -4.90711e-06
rtoes -40.9532 0 0
lowerback -1.83224 -0.0578713 -0.258936
upperback -0.491619 -0.0396565 -6.03025
thorax 0.518769 -0.0217022 -6.10506
lowerneck -6.9963 0.762643 6.54333
upperneck 1.28727 0.33336 3.65614
head 1.593 0.292721 0.0535878
lclavicle 1.28216e-14 1.74931e-14 0
lhumerus -58.6876 -46.8228 115.412
lradius 55.7878 -0 0
lwrist 25.5435 0 0
lhand 37.427 25.307 -1.16594e-05
lfingers 7.12502 -0 0
lthumb 60.2302 38.8432 -2.16497e-05
rclavicle 1.28216e-14 1.74931e-14 0
rhumerus 2.19076 -23.4974 0.581532
rradius 27.4977 -0 0
rwrist -9.69938 0 0
rhand -30.5535 -42.0497 -5.5242e-05
rfingers 7.12502 -0 0
rthumb -3.85194 -71.9949 -5.42293e-05
1055
root 1.21058 15.1604 32.5597 4.90876 -3.44273 3.43382
lfemur 8.64151 0.519296 5.60361
ltibia 0.382613 -0 0
lfoot -30.5828 -11.131 -0.000773796
ltoes -34.215 0 0
rfemur -31.0348 -15.6348 -6.3109
rtibia 49.9715 -0 0
rfoot -21.8645 5.44449 -6.17932e-06
rtoes -40.9452 0 0
lowerback -1.84293 -0.0593145 -0.267296
upperback -0.49349 -0.0411885 -6.02216
thorax 0.522705 -0.022449 -6.09174
lowerneck -7.00217 0.76161 6.53353
upperneck 1.30128 0.331449 3.65999
head 1.59854 0.292365 0.0564053
lclavicle 1.28216e-14 1.74931e-14 0
lhumerus -58.679 -46.8178 115.419
lradius 55.7821 -0 0
lwrist 25.5435 0 0
lhand 37.4327 25.3026 -1.46822e-05
lfingers 7.12502 -0 0
lthumb 60.2351 38.8336 -2.72626e-05
rclavicle 1.28216e-14 1.74931e-14 0
rhumerus 2.1894 -23.4767 0.576971
rradius 27.5008 -0 0
rwrist -9.67623 0 0
rhand -30.5631 -42.0375 -6.9564e-05
rfingers 7.12502 -0 0
rthumb -3.86124 -71.9825 -6.82887e-05
1056
root 1.21248 15.1609 32.5638 4.9121 -3.44717 3.42277
lfemur 8.61002 0.527447 5.59022
ltibia 0.478267 -0 0
lfoot -30.6377 -11.1073 -0.00091035
ltoes -34.2205 0 0
rfemur -31.0108 -15.6158 -6.31172
rtibia 49.9523 -0 0
rfoot -21.8625 5.43924 -7.26979e-06
rtoes -40.9372 0 0
lowerback -1.85361 -0.0607593 -0.275656
upperback -0.495361 -0.0427201 -6.01408
thorax 0.526641 -0.0231967 -6.07842
lowerneck -7.00804 0.760576 6.52374
upperneck 1.31528 0.329538 3.66385
head 1.60409 0.292008 0.0592228
lclavicle 1.28216e-14 1.74931e-14 0
lhumerus -58.6704 -46.8129 115.426
lradius 55.7763 -0 0
lwrist 25.5435 0 0
lhand 37.4383 25.2982 -1.72731e-05
lfingers 7.12502 -0 0
lthumb 60.2399 38.8241 -3.20736e-05
rclavicle 1.28216e-14 1.74931e-14 0
rhumerus 2.18804 -23.4561 0.572411
rradius 27.5039 -0 0
rwrist -9.65309 0 0
rhand -30.5727 -42.0253 -8.184e-05
rfingers 7.12502 -0 0
rthumb -3.87053 -71.9701 -8.03396e-05
1057
root 1.21437 15.1613 32.5679 4.91544 -3.45162 3.41173
lfemur 8.57852 0.53559 5.57682
ltibia 0.57392 -0 0
lfoot -30.6927 -11.0835 -0.00102414
ltoes -34.2259 0 0
rfemur -30.9868 -15.5968 -6.31254
rtibia 49.9331 -0 0
rfoot -21.8605 5.43398 -8.17851e-06
rtoes -40.9292 0 0
lowerback -1.8643 -0.0622056 -0.284015
upperback -0.497233 -0.0442515 -6.00599
thorax 0.530576 -0.0239454 -6.0651
lowerneck -7.0139 0.759541 6.51395
upperneck 1.32929 0.327625 3.66771
head 1.60963 0.291651 0.0620403
lclavicle 1.28216e-14 1.74931e-14 0
lhumerus -58.6618 -46.808 115.433
lradius 55.7706 -0 0
lwrist 25.5435 0 0
lhand 37.444 25.2938 -1.94323e-05
lfingers 7.12502 -0 0
lthumb 60.2447 38.8145 -3.60828e-05
rclavicle 1.28216e-14 1.74931e-14 0
rhumerus 2.18667 -23.4354 0.567851
rradius 27.507 -0 0
rwrist -9.62994 0 0
rhand -30.5823 -42.0131 -9.20701e-05
rfingers 7.12502 -0 0
rthumb -3.87983 -71.9577 -9.03821e-05
1058
root 1.21626 15.1617 32.572 4.91879 -3.45606 3.40068
lfemur 8.54703 0.543725 5.56342
ltibia 0.669573 -0 0
lfoot -30.7476 -11.0598 -0.00111518
ltoes -34.2314 0 0
rfemur -30.9627 -15.5778 -6.31334
rtibia 49.9138 -0 0
rfoot -21.8585 5.42872 -8.90549e-06
rtoes -40.9212 0 0
lowerback -1.87499 -0.0636535 -0.292374
upperback -0.499105 -0.0457826 -5.9979
thorax 0.534511 -0.024695 -6.05178
lowerneck -7.01977 0.758504 6.50416
upperneck 1.34329 0.325711 3.67156
head 1.61518 0.291294 0.0648577
lclavicle 1.28216e-14 1.74931e-14 0
lhumerus -58.6532 -46.8031 115.44
lradius 55.7649 -0 0
lwrist 25.5435 0 0
lhand 37.4496 25.2894 -2.11596e-05
lfingers 7.12502 -0 0
lthumb 60.2495 38.805 -3.92902e-05
rclavicle 1.28216e-14 1.74931e-14 0
rhumerus 2.18531 -23.4148 0.563291
rradius 27.5101 -0 0
rwrist -9.6068 0 0
rhand -30.592 -42.0009 -0.000100254
rfingers 7.12502 -0 0
rthumb -3.88912 -71.9453 -9.84161e-05
